<?xml version="1.0" encoding="UTF-8"?>
<?DOCTYPE svg PUBLIC "-//W3C//DTD SVG 1.0//EN" "http://www.w3.org/TR/2001/REC-SVG-20010904/DTD/svg10.dtd"  type=""?>
<svg xmlns="http://www.w3.org/2000/svg" xmlns:xlink="http://www.w3.org/1999/xlink" height="300" width="500">
  <g id="scruffy_graph">
    <g transform="translate(0.0, 0.0)" id="background">
      <defs>
        <linearGradient x1="0%" x2="0%" y1="0%" y2="100%" id="BackgroundGradient">
          <stop stop-color="black" offset="5%"/>
          <stop stop-color="#4A465A" offset="95%"/>
        </linearGradient>
      </defs>
      <rect x="0" height="300.0" y="0" width="500.0" fill="url(#BackgroundGradient)"/>
    </g>
    <g transform="translate(25.0, 6.0)" id="title">
      <text x="225.0" y="21.0" font-size="21.0" text-anchor="middle" class="title" stroke="none" stroke-width="0" fill="white"></text>
    </g>
    <g transform="translate(10.0, 78.0)" id="view">
      <g>
        <g transform="translate(0.0, 3.96)" id="values">
          <text x="80.1" y="176.22" font-size="14.0976" text-anchor="end" fill="white">0</text>
          <text x="80.1" y="132.165" font-size="14.0976" text-anchor="end" fill="white">18</text>
          <text x="80.1" y="88.11" font-size="14.0976" text-anchor="end" fill="white">35</text>
          <text x="80.1" y="44.055" font-size="14.0976" text-anchor="end" fill="white">52</text>
          <text x="80.1" y="0.0" font-size="14.0976" text-anchor="end" fill="white">70</text>
        </g>
        <g transform="translate(89.0, 0.0)" id="grid">
          <line x1="0" x2="356.0" y1="0.0" y2="0.0" style="stroke: white; stroke-width: 2;"/>
          <line x1="0" x2="356.0" y1="44.055" y2="44.055" style="stroke: white; stroke-width: 2;"/>
          <line x1="0" x2="356.0" y1="88.11" y2="88.11" style="stroke: white; stroke-width: 2;"/>
          <line x1="0" x2="356.0" y1="132.165" y2="132.165" style="stroke: white; stroke-width: 2;"/>
          <line x1="0" x2="356.0" y1="176.22" y2="176.22" style="stroke: white; stroke-width: 2;"/>
        </g>
        <g transform="translate(89.0, 182.16)" id="labels">
          <text x="0.0" y="15.84" font-size="14.256" text-anchor="middle" fill="white">a</text>
          <text x="89.0" y="15.84" font-size="14.256" text-anchor="middle" fill="white">b</text>
          <text x="178.0" y="15.84" font-size="14.256" text-anchor="middle" fill="white">c</text>
          <text x="267.0" y="15.84" font-size="14.256" text-anchor="middle" fill="white">d</text>
          <text x="356.0" y="15.84" font-size="14.256" text-anchor="middle" fill="white">e</text>
        </g>
        <g transform="translate(89.0, 0.0)" id="graphs">
          <g class="graph_layer" id="component_graphs_graph_0">
            <g transform="translate(0.8811, 0.8811)" class="shadow">
              <polyline points="0.0,173.702571428571 89.0,171.185142857143 178.0,168.667714285714 267.0,166.150285714286 356.0,163.632857142857" stroke="black" stroke-width="3.5244" style="fill-opacity: 0; stroke-opacity: 0.35" fill="transparent"/>
              <circle cx="0.0" style="stroke-width: 3.5244; stroke: black; opacity: 0.35;" cy="175.288551428571" r="3.5244"/>
              <circle cx="89.0" style="stroke-width: 3.5244; stroke: black; opacity: 0.35;" cy="172.771122857143" r="3.5244"/>
              <circle cx="178.0" style="stroke-width: 3.5244; stroke: black; opacity: 0.35;" cy="170.253694285714" r="3.5244"/>
              <circle cx="267.0" style="stroke-width: 3.5244; stroke: black; opacity: 0.35;" cy="167.736265714286" r="3.5244"/>
              <circle cx="356.0" style="stroke-width: 3.5244; stroke: black; opacity: 0.35;" cy="165.218837142857" r="3.5244"/>
            </g>
            <polyline points="0.0,173.702571428571 89.0,171.185142857143 178.0,168.667714285714 267.0,166.150285714286 356.0,163.632857142857" stroke="#6886B4" stroke-width="3.5244" fill="none"/>
            <circle cx="0.0" style="stroke-width: 3.5244; stroke: #6886B4; fill: #6886B4" cy="173.702571428571" r="3.5244"/>
            <circle cx="89.0" style="stroke-width: 3.5244; stroke: #6886B4; fill: #6886B4" cy="171.185142857143" r="3.5244"/>
            <circle cx="178.0" style="stroke-width: 3.5244; stroke: #6886B4; fill: #6886B4" cy="168.667714285714" r="3.5244"/>
            <circle cx="267.0" style="stroke-width: 3.5244; stroke: #6886B4; fill: #6886B4" cy="166.150285714286" r="3.5244"/>
            <circle cx="356.0" style="stroke-width: 3.5244; stroke: #6886B4; fill: #6886B4" cy="163.632857142857" r="3.5244"/>
          </g>
          <g class="graph_layer" id="component_graphs_graph_1">
            <g transform="translate(0.8811, 0.8811)" class="shadow">
              <polyline points="0.0,148.528285714286 89.0,120.836571428571 178.0,0.0 267.0,171.185142857143 356.0,128.388857142857" stroke="black" stroke-width="3.5244" style="fill-opacity: 0; stroke-opacity: 0.35" fill="transparent"/>
              <circle cx="0.0" style="stroke-width: 3.5244; stroke: black; opacity: 0.35;" cy="150.114265714286" r="3.5244"/>
              <circle cx="89.0" style="stroke-width: 3.5244; stroke: black; opacity: 0.35;" cy="122.422551428571" r="3.5244"/>
              <circle cx="178.0" style="stroke-width: 3.5244; stroke: black; opacity: 0.35;" cy="1.58598" r="3.5244"/>
              <circle cx="267.0" style="stroke-width: 3.5244; stroke: black; opacity: 0.35;" cy="172.771122857143" r="3.5244"/>
              <circle cx="356.0" style="stroke-width: 3.5244; stroke: black; opacity: 0.35;" cy="129.974837142857" r="3.5244"/>
            </g>
            <polyline points="0.0,148.528285714286 89.0,120.836571428571 178.0,0.0 267.0,171.185142857143 356.0,128.388857142857" stroke="#FDD84E" stroke-width="3.5244" fill="none"/>
            <circle cx="0.0" style="stroke-width: 3.5244; stroke: #FDD84E; fill: #FDD84E" cy="148.528285714286" r="3.5244"/>
            <circle cx="89.0" style="stroke-width: 3.5244; stroke: #FDD84E; fill: #FDD84E" cy="120.836571428571" r="3.5244"/>
            <circle cx="178.0" style="stroke-width: 3.5244; stroke: #FDD84E; fill: #FDD84E" cy="0.0" r="3.5244"/>
            <circle cx="267.0" style="stroke-width: 3.5244; stroke: #FDD84E; fill: #FDD84E" cy="171.185142857143" r="3.5244"/>
            <circle cx="356.0" style="stroke-width: 3.5244; stroke: #FDD84E; fill: #FDD84E" cy="128.388857142857" r="3.5244"/>
          </g>
        </g>
      </g>
    </g>
    <g transform="translate(25.0, 39.0)" id="legend">
      <rect x="180.0" y="4.5" height="9.0" width="10.8" fill="#6886B4"/>
      <text x="198.0" y="14.4" font-size="14.4" fill="white">foo</text>
      <rect x="234.0" y="4.5" height="9.0" width="10.8" fill="#FDD84E"/>
      <text x="252.0" y="14.4" font-size="14.4" fill="white">bar</text>
    </g>
  </g>
</svg>
